<?xml version="1.0" encoding="UTF-8" standalone="no"?>
<!DOCTYPE svg PUBLIC "-//W3C//DTD SVG 1.1//EN" "http://www.w3.org/Graphics/SVG/1.1/DTD/svg11.dtd">
<svg width="100%" height="100%" viewBox="0 0 234 234" version="1.1" xmlns="http://www.w3.org/2000/svg" xmlns:xlink="http://www.w3.org/1999/xlink" xml:space="preserve" xmlns:serif="http://www.serif.com/" style="fill-rule:evenodd;clip-rule:evenodd;stroke-linecap:round;stroke-linejoin:round;stroke-miterlimit:1.5;">
    <g transform="matrix(1,0,0,1,-811,0)">
        <g id="アートボード4" transform="matrix(1,0,0,1,0.816965,0)">
            <rect x="810.183" y="0" width="233.968" height="233.968" style="fill:none;"/>
            <g transform="matrix(1,0,0,1,411.044607,-330.480678)">
                <g id="塗だけ" transform="matrix(0.70329,0,0,0.781191,281.075918,233.065705)">
                    <path d="M441.005,348.181C442.975,343.765 444.627,339.056 445.934,334.048C446.813,334.212 447.719,334.298 448.645,334.298C456.804,334.298 463.899,327.628 463.428,319.436C462.874,309.809 454.676,307.46 447.625,307.832C446.942,312.208 444.97,318.363 440.607,325.767C436.547,306.518 429.524,275.129 419.66,263.98C412.524,269.765 404.846,274.873 396.194,281.093C388.408,277.287 373.027,265.444 365.07,258.28C360.401,261.869 336.341,279.419 325.814,279.198C321,268.242 319.791,266.741 316.221,258.28C301.617,269.305 293.293,275.376 283.794,279.566C280.352,274.95 268.722,270.32 261.549,262.381C252.446,271.749 242.017,300.256 241.226,322.955C235.118,318.978 233.571,310.778 232.381,304.667L232.362,304.667C224.98,305.494 219.232,311.796 219.232,319.436C219.232,327.639 225.856,334.298 234.015,334.298C234.583,334.298 235.145,334.266 235.697,334.203C236.918,339.17 237.98,343.824 239.818,348.179C221.815,336.442 214.092,318.746 211.307,301.453C206.041,295.03 196.653,292.688 191.184,292.552C192.019,284.134 207.626,253.985 213.681,245.745C208.981,243.365 201.632,242.486 195.493,243.025C203.713,228.605 224.799,208.281 236.568,201.233C267.719,167.716 316.137,162.571 328.142,161.442C324.247,156.861 326.097,154.537 320.041,149.61C338.055,147.576 363.665,156.479 371.044,162.689C384.725,164.776 429.728,175.707 454.102,215.854C457.904,222.116 460.983,228.231 463.45,234.158C466.975,242.622 469.253,250.702 470.612,258.28C476.053,267.856 485.231,287.244 484.525,295.347C469.346,293.925 469.409,306.138 467.657,311.68C458.209,341.566 445.269,345.164 441.005,348.181Z" style="fill:rgb(138,144,170);"/>
                </g>
                <g transform="matrix(0.70329,0,0,0.781191,281.075918,233.065705)">
                    <path d="M463.428,319.436C462.874,309.809 454.676,307.46 447.625,307.832C446.942,312.208 444.97,318.363 440.607,325.767C436.547,306.518 429.524,275.129 419.66,263.98C412.524,269.765 404.846,274.873 396.194,281.093C388.408,277.287 373.027,265.444 365.07,258.28C360.401,261.869 336.341,279.419 325.814,279.198C321,268.242 319.791,266.741 316.221,258.28C301.617,269.305 293.293,275.376 283.794,279.566C280.352,274.95 268.722,270.32 261.549,262.381C252.446,271.749 242.017,300.256 241.226,322.955C235.118,318.978 233.571,310.778 232.381,304.667L232.362,304.667C224.98,305.494 219.232,311.796 219.232,319.436C219.232,327.639 225.856,334.298 234.015,334.298C234.583,334.298 235.145,334.266 235.697,334.203C247.638,382.783 290.248,401.524 340.922,401.524C391.299,401.524 433.707,380.9 445.934,334.048C446.813,334.212 447.719,334.298 448.645,334.298C456.804,334.298 463.899,327.628 463.428,319.436Z" style="fill:white;stroke:rgb(51,51,51);stroke-width:2.8px;"/>
                </g>
                <g transform="matrix(1,0,0,1,3,0)">
                    <path d="M498.025,449.081C498.025,449.081 496.467,474.404 499.194,478.495" style="fill:none;stroke:rgb(51,51,51);stroke-width:2.08px;"/>
                </g>
                <g transform="matrix(1,0,0,1,6,0)">
                    <path d="M534.646,449.081C534.646,449.081 535.036,473.43 536.594,476.547" style="fill:none;stroke:rgb(51,51,51);stroke-width:2.08px;"/>
                </g>
                <g transform="matrix(1,0,0,1,3,0)">
                    <path d="M506.206,501.091C506.596,509.078 513.803,516.675 519.063,516.091C524.322,515.506 530.166,509.078 530.166,501.091" style="fill:none;stroke:rgb(51,51,51);stroke-width:2.08px;"/>
                </g>
                <path d="M449.738,505.06C437.076,495.891 431.645,482.067 429.686,468.558C425.982,463.54 419.38,461.711 415.534,461.605C416.121,455.029 427.097,431.477 431.356,425.039C428.05,423.18 422.882,422.493 418.564,422.915C424.345,411.65 439.175,395.773 447.452,390.267C469.36,364.084 503.412,360.065 511.855,359.183C509.115,355.604 510.417,353.789 506.157,349.939C518.827,348.351 536.838,355.306 542.027,360.157C551.649,361.787 583.3,370.327 600.442,401.689C603.115,406.581 605.281,411.358 607.016,415.987C609.495,422.6 611.097,428.912 612.053,434.832C615.88,442.313 622.334,457.458 621.838,463.788C611.163,462.677 611.207,472.218 609.974,476.547C603.33,499.894 594.367,502.705 591.427,505.061" style="fill:none;stroke:rgb(51,51,51);stroke-width:2.08px;"/>
                <g id="塗だけ1" serif:id="塗だけ">
                    <g transform="matrix(1,0,0,1,93.605846,-1.855876)">
                        <path d="M474.649,478.495C487.706,477.392 493.35,486.482 493.35,490.962C493.35,495.442 487.506,501.091 476.208,501.091C464.91,501.091 457.35,495.642 457.507,490.572C457.668,485.399 460.819,479.664 474.649,478.495Z" style="fill:rgb(255,232,234);"/>
                    </g>
                    <g transform="matrix(-1,0,0,1,948.95898,-1.855876)">
                        <path d="M474.649,478.495C487.706,477.392 493.35,486.482 493.35,490.962C493.35,495.442 487.506,501.091 476.208,501.091C464.91,501.091 457.35,495.642 457.507,490.572C457.668,485.399 460.819,479.664 474.649,478.495Z" style="fill:rgb(255,232,234);"/>
                    </g>
                </g>
            </g>
        </g>
    </g>
</svg>
